<svg width="56" height="12" viewBox="0 0 56 12" fill="none" xmlns="http://www.w3.org/2000/svg">
<path d="M5.0206 10.5476L0.382102 5.90909L5.0206 1.2706L5.91548 2.15554L2.80824 5.26278H10.6136V6.5554H2.80824L5.91548 9.65767L5.0206 10.5476ZM18.071 0.818182L20.9048 9.1108H21.0192L23.853 0.818182H25.5135L21.8494 11H20.0746L16.4105 0.818182H18.071ZM29.3155 11.1541C28.5996 11.1541 27.9748 10.9901 27.4412 10.6619C26.9076 10.3338 26.4933 9.87476 26.1983 9.2848C25.9033 8.69484 25.7559 8.00544 25.7559 7.21662C25.7559 6.42448 25.9033 5.73177 26.1983 5.13849C26.4933 4.54522 26.9076 4.08452 27.4412 3.75639C27.9748 3.42827 28.5996 3.2642 29.3155 3.2642C30.0314 3.2642 30.6562 3.42827 31.1898 3.75639C31.7234 4.08452 32.1377 4.54522 32.4327 5.13849C32.7277 5.73177 32.8752 6.42448 32.8752 7.21662C32.8752 8.00544 32.7277 8.69484 32.4327 9.2848C32.1377 9.87476 31.7234 10.3338 31.1898 10.6619C30.6562 10.9901 30.0314 11.1541 29.3155 11.1541ZM29.3205 9.90625C29.7845 9.90625 30.169 9.78362 30.4739 9.53835C30.7788 9.29309 31.0042 8.96662 31.15 8.55895C31.2992 8.15128 31.3738 7.70218 31.3738 7.21165C31.3738 6.72443 31.2992 6.27699 31.15 5.86932C31.0042 5.45833 30.7788 5.12855 30.4739 4.87997C30.169 4.63139 29.7845 4.5071 29.3205 4.5071C28.8532 4.5071 28.4654 4.63139 28.1571 4.87997C27.8522 5.12855 27.6252 5.45833 27.476 5.86932C27.3302 6.27699 27.2573 6.72443 27.2573 7.21165C27.2573 7.70218 27.3302 8.15128 27.476 8.55895C27.6252 8.96662 27.8522 9.29309 28.1571 9.53835C28.4654 9.78362 28.8532 9.90625 29.3205 9.90625ZM36.021 0.818182V11H34.5344V0.818182H36.021ZM41.5854 3.36364V4.55682H37.4142V3.36364H41.5854ZM38.5328 1.53409H40.0194V8.75781C40.0194 9.04616 40.0624 9.26326 40.1486 9.40909C40.2348 9.55161 40.3458 9.64938 40.4817 9.70241C40.6209 9.75213 40.7717 9.77699 40.9341 9.77699C41.0534 9.77699 41.1578 9.7687 41.2473 9.75213C41.3368 9.73556 41.4064 9.7223 41.4561 9.71236L41.7246 10.9403C41.6384 10.9735 41.5158 11.0066 41.3567 11.0398C41.1976 11.0762 40.9988 11.0961 40.7601 11.0994C40.369 11.1061 40.0044 11.0365 39.6664 10.8906C39.3283 10.7448 39.0549 10.5194 38.8461 10.2145C38.6373 9.90956 38.5328 9.52675 38.5328 9.06605V1.53409ZM45.4521 11.169C44.9682 11.169 44.5307 11.0795 44.1396 10.9006C43.7485 10.7183 43.4386 10.4548 43.2099 10.1101C42.9845 9.76539 42.8718 9.3428 42.8718 8.84233C42.8718 8.41146 42.9547 8.05682 43.1204 7.77841C43.2861 7.5 43.5098 7.27959 43.7915 7.11719C44.0733 6.95478 44.3881 6.83215 44.7362 6.74929C45.0842 6.66643 45.4388 6.60346 45.8001 6.56037C46.2575 6.50734 46.6287 6.46425 46.9137 6.43111C47.1987 6.39465 47.4059 6.33665 47.5352 6.2571C47.6644 6.17756 47.729 6.0483 47.729 5.86932V5.83452C47.729 5.40033 47.6064 5.06392 47.3612 4.82528C47.1192 4.58665 46.7579 4.46733 46.2773 4.46733C45.7769 4.46733 45.3825 4.57836 45.0941 4.80043C44.8091 5.01918 44.6119 5.26278 44.5025 5.53125L43.1055 5.21307C43.2712 4.74905 43.5131 4.37453 43.8313 4.08949C44.1528 3.80114 44.5224 3.59233 44.94 3.46307C45.3576 3.33049 45.7968 3.2642 46.2575 3.2642C46.5624 3.2642 46.8855 3.30066 47.2269 3.37358C47.5716 3.44318 47.8931 3.57244 48.1914 3.76136C48.493 3.95028 48.7399 4.22041 48.9322 4.57173C49.1244 4.91974 49.2205 5.37216 49.2205 5.92898V11H47.7688V9.95597H47.7092C47.613 10.1482 47.4689 10.3371 47.2766 10.5227C47.0844 10.7083 46.8375 10.8625 46.5359 10.9851C46.2343 11.1077 45.873 11.169 45.4521 11.169ZM45.7752 9.97585C46.1862 9.97585 46.5375 9.89465 46.8292 9.73224C47.1242 9.56984 47.3479 9.35772 47.5004 9.09588C47.6561 8.83073 47.734 8.54735 47.734 8.24574V7.26136C47.681 7.31439 47.5782 7.36411 47.4258 7.41051C47.2766 7.4536 47.1059 7.49171 46.9137 7.52486C46.7215 7.55469 46.5342 7.58286 46.3519 7.60938C46.1696 7.63258 46.0172 7.65246 45.8945 7.66903C45.6062 7.70549 45.3427 7.76681 45.104 7.85298C44.8687 7.93916 44.6798 8.06345 44.5373 8.22585C44.3981 8.38494 44.3285 8.59706 44.3285 8.86222C44.3285 9.23011 44.4644 9.50852 44.7362 9.69744C45.0079 9.88305 45.3543 9.97585 45.7752 9.97585ZM51.2005 11V3.36364H52.6373V4.5767H52.7168C52.856 4.16572 53.1013 3.84257 53.4526 3.60724C53.8072 3.36861 54.2083 3.24929 54.6557 3.24929C54.7485 3.24929 54.8579 3.2526 54.9838 3.25923C55.1131 3.26586 55.2142 3.27415 55.2871 3.28409V4.70597C55.2275 4.68939 55.1214 4.67116 54.9689 4.65128C54.8165 4.62808 54.664 4.61648 54.5115 4.61648C54.1602 4.61648 53.847 4.69105 53.5719 4.8402C53.3001 4.98603 53.0847 5.18987 52.9256 5.4517C52.7665 5.71023 52.687 6.00521 52.687 6.33665V11H51.2005Z" fill="#CA3884"/>
</svg>
