<svg width="31" height="24" viewBox="0 0 31 24" fill="none" xmlns="http://www.w3.org/2000/svg">
<path d="M9.15385 5.35844C8.48215 5.33946 7.84452 5.06642 7.3763 4.59729C6.9081 4.12816 6.64615 3.4999 6.64615 2.84589C6.64615 2.19187 6.9081 1.56358 7.3763 1.09446C7.84452 0.625332 8.48215 0.35231 9.15385 0.333313H25.585C26.2567 0.35231 26.8944 0.625332 27.3626 1.09446C27.8307 1.56358 28.0927 2.19187 28.0927 2.84589C28.0927 3.4999 27.8307 4.12816 27.3626 4.59729C26.8944 5.06642 26.2567 5.33946 25.585 5.35844H9.15385ZM2.58271 9.72602C3.09352 9.72602 3.59286 9.5786 4.01758 9.30239C4.4423 9.02619 4.77334 8.63362 4.96882 8.17431C5.16429 7.715 5.21543 7.20961 5.11578 6.72202C5.01613 6.23442 4.77013 5.78653 4.40893 5.435C4.04774 5.08345 3.58754 4.84405 3.08657 4.74705C2.58557 4.65007 2.06626 4.69983 1.59434 4.89008C1.12241 5.08033 0.71905 5.40252 0.435259 5.81588C0.151469 6.22927 0 6.71524 0 7.21238C0.00173124 7.87794 0.274615 8.51568 0.758778 8.9857C1.24294 9.45571 1.89887 9.71968 2.58271 9.71968V9.72602ZM4.93002 18.6075C4.24505 18.6075 3.58809 18.8724 3.10374 19.3438C2.61939 19.8152 2.34731 20.4545 2.34731 21.1212C2.34731 21.7879 2.61939 22.4272 3.10374 22.8986C3.58809 23.3699 4.24505 23.6348 4.93002 23.6348H21.359C22.044 23.6348 22.7009 23.3699 23.1852 22.8986C23.6697 22.4272 23.9417 21.7879 23.9417 21.1212C23.9417 20.4545 23.6697 19.8152 23.1852 19.3438C22.7009 18.8724 22.044 18.6075 21.359 18.6075H4.93002ZM8.68528 9.4715C8.33994 9.46172 7.9961 9.51948 7.67413 9.64134C7.35215 9.76323 7.05855 9.94675 6.81074 10.181C6.56291 10.4153 6.36591 10.6956 6.23139 11.0053C6.09685 11.315 6.02755 11.6478 6.02755 11.9841C6.02755 12.3203 6.09685 12.6531 6.23139 12.9628C6.36591 13.2725 6.56291 13.5528 6.81074 13.7871C7.05855 14.0214 7.35215 14.2049 7.67413 14.3268C7.9961 14.4486 8.33994 14.5064 8.68528 14.4966H21.8276C22.173 14.5064 22.5167 14.4486 22.8388 14.3268C23.1608 14.2049 23.4543 14.0214 23.7021 13.7871C23.9499 13.5528 24.147 13.2725 24.2814 12.9628C24.4159 12.6531 24.4852 12.3203 24.4852 11.9841C24.4852 11.6478 24.4159 11.315 24.2814 11.0053C24.147 10.6956 23.9499 10.4153 23.7021 10.181C23.4543 9.94675 23.1608 9.76323 22.8388 9.64134C22.5167 9.51948 22.173 9.46172 21.8276 9.4715H8.68528ZM27.9323 14.2421C27.4214 14.2417 26.9217 14.3888 26.4967 14.6648C26.0715 14.9409 25.7402 15.3334 25.5445 15.7928C25.3487 16.2522 25.2973 16.7578 25.3969 17.2456C25.4965 17.7334 25.7426 18.1815 26.1039 18.5331C26.4653 18.8848 26.9256 19.1242 27.4269 19.2212C27.9279 19.3181 28.4475 19.2681 28.9194 19.0776C29.3915 18.8871 29.7949 18.5646 30.0784 18.1509C30.362 17.7372 30.5133 17.2509 30.5128 16.7536C30.5137 16.4232 30.4477 16.096 30.3182 15.7905C30.1889 15.4851 29.9991 15.2075 29.7594 14.9736C29.5196 14.7397 29.2348 14.5541 28.9214 14.4275C28.6079 14.3009 28.2719 14.2357 27.9323 14.2357V14.2421Z" fill="#CA3884"/>
</svg>
