<svg width="18" height="18" viewBox="0 0 18 18" fill="none" xmlns="http://www.w3.org/2000/svg">
<path d="M16.509 10.7471C16.9439 10.6298 17.1614 10.5712 17.2473 10.459C17.3332 10.3469 17.3332 10.1665 17.3332 9.80576V8.19435C17.3332 7.8336 17.3332 7.65318 17.2473 7.5411C17.1613 7.42893 16.9439 7.37026 16.509 7.253C14.8837 6.81467 13.8664 5.11544 14.2859 3.50074C14.4013 3.05667 14.4589 2.83465 14.4038 2.70442C14.3488 2.5742 14.1908 2.48446 13.8746 2.30498L12.4373 1.48896C12.1272 1.31284 11.9721 1.22478 11.8329 1.24353C11.6937 1.26228 11.5367 1.41896 11.2225 1.73229C10.0065 2.94541 7.9945 2.94536 6.77845 1.73221C6.46436 1.41887 6.30732 1.26221 6.16811 1.24345C6.02891 1.2247 5.87381 1.31276 5.56361 1.48887L4.12637 2.30491C3.81028 2.48437 3.65223 2.57411 3.59715 2.70431C3.54207 2.83451 3.59973 3.05657 3.71505 3.50068C4.13431 5.11543 3.11627 6.81471 1.49069 7.25301C1.05577 7.37026 0.838312 7.42893 0.752404 7.54101C0.666504 7.65318 0.666504 7.8336 0.666504 8.19435V9.80576C0.666504 10.1665 0.666504 10.3469 0.752404 10.459C0.838296 10.5712 1.05576 10.6298 1.49069 10.7471C3.116 11.1854 4.13324 12.8847 3.71377 14.4993C3.59841 14.9434 3.54073 15.1654 3.5958 15.2957C3.65089 15.4259 3.80894 15.5157 4.12505 15.6951L5.5623 16.5112C5.87251 16.6873 6.02762 16.7753 6.16684 16.7566C6.30605 16.7378 6.46307 16.5811 6.7771 16.2678C7.99375 15.0537 10.0072 15.0536 11.2239 16.2677C11.5379 16.5811 11.6949 16.7378 11.8342 16.7565C11.9733 16.7753 12.1285 16.6872 12.4387 16.5111L13.8759 15.695C14.1921 15.5156 14.3502 15.4258 14.4052 15.2956C14.4603 15.1653 14.4026 14.9433 14.2872 14.4993C13.8675 12.8847 14.8839 11.1855 16.509 10.7471Z" stroke="#080B12" stroke-width="1.25" stroke-linecap="round"/>
</svg>
